<svg width="59" height="49" viewBox="0 0 59 49" fill="none" xmlns="http://www.w3.org/2000/svg">
<path opacity="0.2" d="M14.2761 11.6957C13.9486 10.2743 13.5888 9.12724 13.4327 7.95417C13.1948 6.17311 13.9839 4.83036 15.7513 4.25134C18.8802 3.22305 22.0364 2.26103 25.2123 1.36975C26.3868 1.04025 27.638 0.899572 28.8633 0.831473C32.0469 0.659376 33.3954 1.63812 34.2376 4.56718C34.3716 5.03266 34.5111 5.49693 34.7028 6.14433C35.9865 5.86278 37.2359 5.63061 38.4645 5.31126C41.4474 4.53831 44.412 3.68874 47.4032 2.93897C49.7789 2.34358 50.4373 2.47745 51.1277 4.6973C52.1097 7.85116 53.2603 11.1454 53.2207 14.3663C53.1395 21.2568 56.1723 27.2976 57.9031 33.6881C58.4721 35.7848 58.586 35.7565 56.4484 36.3376C52.6749 37.3626 48.888 38.3432 45.1332 39.4224C36.2053 41.9843 27.2868 44.5859 18.3724 47.1922C17.354 47.4896 16.3825 47.9351 15.3873 48.3052C13.0473 49.171 11.9487 48.6374 11.248 46.314C10.7131 44.541 10.2261 42.7516 9.61393 41.0041C8.71346 38.4333 7.72693 35.8872 6.7574 33.3401C6.64863 33.0527 6.46593 32.6482 6.2235 32.5716C4.58331 32.045 4.13893 30.6274 3.71514 29.3083C2.7052 26.1579 1.71458 22.992 0.942866 19.78C0.30537 17.1308 0.832618 16.0637 3.58389 14.9585C6.36938 13.84 9.33799 13.1398 12.2276 12.2652C12.9135 12.0562 13.6103 11.8808 14.2733 11.6963L14.2761 11.6957ZM34.8794 26.3486C37.0663 25.4921 39.1957 24.9128 41.0525 23.8768C44.4364 21.9898 47.6783 19.8563 50.9344 17.7586C51.3207 17.5107 51.6951 16.8146 51.6247 16.399C51.0622 13.0761 50.4378 9.75876 49.724 6.46419C49.4631 5.26166 48.8658 4.54073 47.2191 4.98699C33.5388 8.68707 19.8305 12.282 6.13993 15.951C5.08107 16.2352 4.03045 16.7346 3.14125 17.3566C2.69529 17.6679 2.28847 18.5772 2.4338 19.054C3.50803 22.5825 4.69014 26.0813 5.94612 29.5524C6.11475 30.0185 6.85954 30.5506 7.37903 30.5958C13.1757 31.089 18.887 30.513 24.6086 29.0161C24.5351 27.9247 24.3836 26.7951 24.4235 25.6729C24.4406 25.2265 24.8773 24.792 25.1232 24.3529C25.3997 24.7531 25.7835 25.121 25.9261 25.5622C26.1361 26.2139 26.1773 26.9172 26.2542 27.3843C26.8853 26.8368 27.3732 26.0987 28.0297 25.8989C31.3796 24.8936 31.3861 24.945 31.8531 28.3977C31.9182 28.8758 32.2445 29.3401 32.2284 29.8029C32.2163 30.1981 31.9367 30.8814 31.6907 30.9225C30.1046 31.177 28.4984 32.1069 26.6893 30.7273C26.865 31.6205 26.982 32.2317 27.1712 33.1942C29.0612 32.6713 30.7707 32.211 32.4699 31.7196C33.271 31.4875 33.6204 31.0364 33.428 30.133C33.0364 28.2861 32.7683 26.4145 32.4166 24.361C30.9663 24.691 26.8644 25.2549 25.5478 25.4103C24.9582 25.4809 24.3102 25.0775 23.6875 24.8884C24.1391 24.4199 24.5077 23.7001 25.057 23.5327C26.6036 23.0643 31.0314 22.6139 32.6334 22.3418C33.7687 22.1491 34.264 22.8762 34.461 23.823C34.6238 24.6021 34.7205 25.3933 34.8766 26.3492L34.8794 26.3486ZM13.8453 46.8771C15.0356 46.4689 16.2 46.0971 17.347 45.6763C26.8196 42.2049 36.5886 39.7108 46.3937 37.3201C49.2187 36.6326 52.0408 35.9206 54.8261 35.1028C55.2373 34.983 55.7942 34.1125 55.6923 33.7456C54.4181 29.1373 53.036 24.5588 51.5917 19.6713C46.6196 23.7811 40.9899 25.9283 35.2877 28.0971C35.3704 28.9861 35.3858 29.7981 35.5314 30.5895C35.7508 31.7985 35.349 32.6204 34.1273 33.005C32.4784 33.5269 30.8487 34.1169 29.1682 34.5178C25.1651 35.4716 25.3645 34.2831 24.9306 31.4993C24.9165 31.4161 24.7941 31.3489 24.8667 31.4245C19.4854 31.974 14.2355 32.5081 8.86508 33.0552C10.46 37.4776 12.1284 42.1118 13.8481 46.8765L13.8453 46.8771ZM29.636 7.38617C29.4236 5.9891 28.8517 5.21795 27.2986 5.59875C25.0828 6.14166 22.827 6.54045 20.6344 7.15613C18.5926 7.72971 18.4714 8.22166 19.5298 10.1894C22.8967 9.25539 26.2691 8.32015 29.6367 7.38878L29.636 7.38617ZM31.9727 6.95259C32.1315 6.48564 32.4494 6.01093 32.4191 5.55845C32.2564 3.16491 30.8071 2.19757 27.8341 2.84306C24.5106 3.56138 21.2274 4.48499 17.981 5.47833C15.2517 6.31425 14.6318 8.05337 16.0364 10.4363C16.1853 10.687 16.6128 10.7806 16.9113 10.9476C17.0311 10.6787 17.2194 10.4195 17.2504 10.1398C17.2789 9.88567 17.1611 9.60863 17.0762 9.34926C16.5353 7.68331 16.9693 6.44223 18.7755 5.89349C21.174 5.16496 23.5513 4.26303 26.0118 3.85464C29.9367 3.19944 29.9632 3.34661 31.9748 6.94933L31.9727 6.95259ZM30.0658 27.1219C27.9495 27.985 27.9274 28.0372 28.8091 29.9387C29.2948 29.8301 29.7995 29.7172 30.337 29.5969C30.2441 28.7493 30.1626 28.0216 30.0631 27.1225L30.0658 27.1219Z" fill="#2678FC"/>
</svg>
