<svg width="437" height="456" viewBox="0 0 437 456" fill="none" xmlns="http://www.w3.org/2000/svg">
<g opacity="0.05">
<path d="M304.21 73.7656C299.185 79.9891 292.18 84.7467 283.844 86.9803C263.152 92.5248 241.878 80.4716 236.427 60.1279C234.238 51.9583 234.926 43.672 237.869 36.3076C217.001 31.6053 195.565 31.9325 173.646 37.3008L186.18 84.0806C200.317 80.8321 213.667 80.8813 226.198 84.1912C239.82 87.7825 251.62 94.949 261.623 105.604C270.87 115.532 277.776 128.015 282.264 143.062L335.439 128.814C329.147 107.295 318.722 88.9615 304.213 73.7763L304.21 73.7656Z" fill="#4A8FFC"/>
<path d="M284.436 149.396C287.947 164.446 288.208 178.433 285.185 191.444C281.877 205.556 275.308 217.616 265.419 227.573C256.328 236.747 244.888 243.465 231.148 247.694C229.946 248.05 228.755 248.403 227.544 248.727C226.182 249.092 224.845 249.417 223.512 249.717C209.633 252.867 196.431 252.751 183.985 249.404C170.292 245.767 158.508 238.624 148.62 228.048C139.504 218.278 132.728 206.048 128.244 191.259C127.862 189.961 127.479 188.664 127.124 187.336C126.805 186.147 126.522 184.96 126.235 183.762C122.628 168.612 122.37 154.465 125.39 141.352C128.666 127.249 135.316 115.235 145.384 105.344C154.524 96.3509 165.913 89.7026 179.508 85.4909L167.067 39.0637C144.846 45.6211 125.715 56.6657 109.601 72.1375C92.5411 88.5342 80.759 108.069 74.2789 130.748C68.1184 152.328 67.8404 174.722 73.5012 197.88C73.7551 199.087 74.0709 200.266 74.3896 201.455C74.7481 202.793 75.1305 204.091 75.5101 205.377C82.283 228.363 93.7122 247.586 109.75 263.127C126.704 279.538 146.672 290.554 169.645 296.224C191.336 301.566 213.426 301.565 235.949 296.133C237.287 295.809 238.625 295.485 239.976 295.123C241.186 294.798 242.386 294.477 243.579 294.089C265.969 287.555 285.251 276.47 301.435 260.911C318.495 244.514 330.19 225.002 336.541 202.358C342.54 180.913 342.794 158.559 337.167 135.267L284.425 149.399L284.436 149.396Z" fill="#4A8FFC"/>
<path d="M365.572 313.588L385.576 288.628C387.489 286.241 387.098 282.774 384.703 280.883L335.274 241.86C332.879 239.969 329.387 240.371 327.475 242.757L307.471 267.718C305.558 270.104 305.949 273.572 308.344 275.463L357.773 314.486C360.168 316.377 363.66 315.975 365.572 313.588Z" fill="#4A8FFC"/>
<path d="M281.8 84.5521C300.253 79.6078 311.274 60.9031 306.416 42.774C301.558 24.6449 282.662 13.9567 264.209 18.901C245.757 23.8453 234.736 42.55 239.593 60.6791C244.451 78.8081 263.348 89.4964 281.8 84.5521Z" fill="#4A8FFC"/>
</g>
<g opacity="0.8">
<path d="M375.603 177.156C376.774 179.592 377.698 181.895 378.653 184.3C379.609 186.674 380.43 189.111 381.231 191.557C382.792 196.46 384.086 201.507 384.816 206.831C384.929 207.489 384.97 208.178 385.042 208.846L385.144 209.864C385.165 210.049 385.175 210.172 385.196 210.398L385.226 211.066C385.278 212.814 385.083 214.294 384.826 215.712C384.312 218.529 383.532 221.057 382.659 223.524C380.882 228.437 378.715 232.991 376.127 237.452L370.91 235.242C372.07 230.555 373.241 225.775 374.124 221.16C374.545 218.858 374.905 216.555 375.038 214.468C375.09 213.43 375.079 212.433 374.977 211.714L374.864 211.066L374.71 210.244C374.607 209.689 374.535 209.154 374.391 208.599C373.436 204.169 372.039 199.667 370.437 195.206C369.657 192.965 368.784 190.745 367.931 188.525C367.079 186.325 366.113 184.053 365.23 181.987L375.603 177.156Z" fill="#7F3E3B"/>
<path d="M371.084 233.918L367.079 237.834L375.819 241.905C375.819 241.905 377.945 238.194 376.476 234.843L371.084 233.918Z" fill="#7F3E3B"/>
<path d="M363.854 243.662L371.228 246.684L375.819 241.904L367.078 237.834L363.854 243.662Z" fill="#7F3E3B"/>
<path opacity="0.2" d="M214.265 239.446C254.854 234.913 284.094 198.299 279.554 157.667C275.014 117.035 238.431 87.7812 197.843 92.3245C157.244 96.8677 128.004 133.471 132.543 174.103C137.083 214.735 173.666 243.989 214.265 239.446Z" fill="#15B097"/>
<path opacity="0.1" d="M160.458 107.588L272.92 197.518C273.402 196.5 273.854 195.472 274.296 194.434C277.079 187.814 278.907 180.742 279.636 173.383L182.499 95.6953C174.395 98.3986 166.97 102.459 160.458 107.578V107.588Z" fill="white"/>
<path opacity="0.1" d="M134.515 146.998L240.249 231.542C250.386 226.258 259.054 218.724 265.689 209.668L150.229 117.344C142.865 125.814 137.432 135.948 134.515 147.008V146.998Z" fill="white"/>
<path d="M388.205 249.006C387.958 246.57 387.26 245.028 386.438 243.764C385.606 242.51 384.569 241.657 383.409 241.081L376.394 237.638C371.731 235.325 367.027 233.074 362.334 230.823C357.65 228.551 352.916 226.362 348.212 224.132C343.477 221.952 338.763 219.743 334.008 217.605C324.518 213.287 314.977 209.094 305.364 205.044C300.557 203.019 295.73 201.014 290.882 199.082C287.935 197.921 286.394 194.672 287.349 191.65C299.92 152.118 282.111 108.248 243.803 89.3245C201.561 68.4585 150.414 85.8092 129.565 128.086C108.716 170.363 126.052 221.552 168.295 242.428C206.603 261.351 252.214 248.821 275.939 214.798C277.746 212.198 281.259 211.458 283.981 213.082C288.469 215.765 292.988 218.375 297.517 220.966C306.586 226.136 315.716 231.173 324.898 236.086C329.479 238.573 334.111 240.968 338.712 243.404C343.344 245.789 347.955 248.215 352.608 250.558C357.25 252.912 361.892 255.276 366.565 257.579L373.559 261.053C374.73 261.629 376.034 261.927 377.534 261.834C379.044 261.721 380.687 261.341 382.772 260.056C386.428 257.795 388.688 253.58 388.215 249.006H388.205ZM176.254 226.29C142.916 209.823 129.246 169.428 145.7 136.073C162.153 102.718 202.505 89.0162 235.843 105.493C269.181 121.96 282.851 162.356 266.398 195.711C249.944 229.076 209.592 242.767 176.254 226.3V226.29Z" fill="#15B097"/>
<path d="M336.873 145.377C336.873 145.984 336.555 146.477 336.154 146.477C335.754 146.477 335.436 145.984 335.436 145.377C335.436 144.771 335.754 144.277 336.154 144.277C336.555 144.277 336.873 144.771 336.873 145.377Z" fill="#263238"/>
<path d="M336.606 146.484C336.606 146.484 335.23 150 333.7 151.696C334.778 152.703 336.606 152.241 336.606 152.241V146.484Z" fill="#630F0F"/>
<path d="M339.03 142.003C339.143 142.003 339.246 141.952 339.318 141.859C339.431 141.695 339.4 141.479 339.235 141.356C337.633 140.204 336.082 140.78 336.021 140.801C335.836 140.873 335.744 141.078 335.815 141.263C335.887 141.448 336.093 141.541 336.278 141.469C336.278 141.469 337.541 141.006 338.814 141.931C338.876 141.972 338.948 142.003 339.02 142.003H339.03Z" fill="#263238"/>
<path d="M357.651 149.969C356.572 155.488 355.484 165.613 359.345 169.303C359.345 169.303 357.835 174.905 347.575 174.905C336.298 174.905 342.183 169.303 342.183 169.303C348.335 167.833 348.181 163.259 347.103 158.973L357.63 149.979L357.651 149.969Z" fill="#7F3E3B"/>
<path d="M361.368 165.841C362.221 166.119 361.101 171.197 361.101 171.197C361.101 171.197 359.694 174.743 342.214 173.509C340.868 173.417 341.382 168.545 342.666 167.835C346.764 165.574 358.564 164.937 361.368 165.841Z" fill="#263238"/>
<path d="M396.832 378.211C397.787 378.119 399.153 376.382 399.544 375.744C399.585 375.683 399.574 375.611 399.544 375.549C399.502 375.487 399.431 375.456 399.369 375.477C399.266 375.498 396.781 375.95 396.175 376.906C396.041 377.132 396 377.358 396.072 377.594C396.206 378.047 396.462 378.17 396.668 378.201C396.719 378.201 396.781 378.201 396.842 378.201L396.832 378.211ZM398.999 375.919C398.332 376.844 397.243 377.923 396.709 377.851C396.658 377.851 396.503 377.821 396.411 377.502C396.37 377.368 396.391 377.235 396.473 377.101C396.832 376.525 398.167 376.114 398.999 375.919Z" fill="#15B097"/>
<path d="M398.896 375.92C399.112 375.9 399.297 375.869 399.441 375.828C399.502 375.807 399.554 375.756 399.564 375.694C399.574 375.632 399.564 375.561 399.502 375.519C399.431 375.458 397.777 374.039 396.647 374.142C396.349 374.173 396.113 374.296 395.949 374.512C395.682 374.851 395.785 375.119 395.877 375.242C396.277 375.828 397.869 376.013 398.896 375.91V375.92ZM398.979 375.55C398.003 375.674 396.452 375.468 396.165 375.047C396.134 375.005 396.082 374.923 396.226 374.738C396.339 374.594 396.483 374.522 396.678 374.502C397.397 374.43 398.465 375.16 398.979 375.55Z" fill="#15B097"/>
<path d="M326.223 405.244C327.127 405.244 328.051 405.131 328.534 405.028C328.606 405.018 328.667 404.956 328.678 404.884C328.688 404.812 328.657 404.741 328.585 404.699C328.472 404.638 325.843 403.127 324.58 403.476C324.323 403.548 324.128 403.692 324.015 403.898C323.799 404.268 323.892 404.525 324.005 404.679C324.323 405.111 325.258 405.244 326.223 405.244ZM327.969 404.771C326.562 404.967 324.652 404.956 324.303 404.473C324.261 404.412 324.21 404.299 324.333 404.083C324.405 403.959 324.518 403.877 324.683 403.836C325.453 403.63 327.045 404.309 327.959 404.782L327.969 404.771Z" fill="#15B097"/>
<path d="M328.503 405.038C328.503 405.038 328.575 405.028 328.606 405.007C328.657 404.966 328.688 404.904 328.678 404.843C328.678 404.761 328.462 402.725 327.507 401.934C327.209 401.697 326.88 401.584 326.511 401.625C326.018 401.677 325.874 401.924 325.843 402.129C325.709 402.982 327.507 404.617 328.421 405.028C328.441 405.038 328.472 405.048 328.493 405.048L328.503 405.038ZM326.665 401.975C326.891 401.975 327.096 402.047 327.281 402.211C327.907 402.725 328.185 403.949 328.277 404.545C327.353 403.99 326.12 402.705 326.202 402.191C326.202 402.15 326.233 402.026 326.552 401.985C326.593 401.985 326.624 401.985 326.654 401.985L326.665 401.975Z" fill="#15B097"/>
<path d="M336.801 404.853H329.263L328.503 387.369H336.052L336.801 404.853Z" fill="#7F3E3B"/>
<path d="M406.137 370.215L400.252 374.933L385.278 364.52L391.173 359.812L406.137 370.215Z" fill="#7F3E3B"/>
<path d="M399.174 374.636L405.192 368.664C405.408 368.448 405.747 368.407 406.014 368.582L411.796 372.303C412.392 372.693 412.474 373.546 411.96 374.04C409.824 376.085 408.684 376.979 406.034 379.601C404.401 381.214 400.437 386.045 398.188 388.276C395.99 390.455 393.443 388.574 394.162 387.454C397.397 382.458 398.506 378.326 398.65 375.828C398.681 375.376 398.876 374.955 399.194 374.636H399.174Z" fill="#263238"/>
<path d="M329.304 403.98H337.541C337.849 403.98 338.116 404.196 338.188 404.494L339.677 411.206C339.831 411.905 339.307 412.563 338.589 412.553C335.62 412.502 331.317 412.327 327.589 412.327C323.224 412.327 319.444 412.563 314.33 412.563C311.228 412.563 310.376 409.428 311.67 409.14C317.575 407.845 322.392 407.712 327.496 404.566C328.051 404.227 328.667 403.98 329.314 403.98H329.304Z" fill="#263238"/>
<path d="M374.217 171.554C380.759 174.689 383.501 195.782 383.501 195.782L368.455 201.692C368.455 201.692 364.86 193.161 362.796 184.064C360.639 174.525 367.52 168.358 374.217 171.565V171.554Z" fill="#15B097"/>
<path opacity="0.3" d="M374.217 171.554C380.759 174.689 383.501 195.782 383.501 195.782L368.455 201.692C368.455 201.692 364.86 193.161 362.796 184.064C360.639 174.525 367.52 168.358 374.217 171.565V171.554Z" fill="white"/>
<path opacity="0.2" d="M364.47 177.762C363.936 177.505 363.402 177.309 362.868 177.176C362.303 179.149 362.221 181.483 362.806 184.063C364.86 193.159 368.455 201.691 368.455 201.691L373.415 199.748C372.501 194.228 369.697 180.27 364.47 177.762Z" fill="black"/>
<path d="M330.588 171.402C330.588 171.402 322.556 180.478 330.146 236.673H370.499C370.776 230.475 366.884 200.224 372.861 171.011C372.861 171.011 365.939 169.624 359.355 169.305C354.2 169.058 346.733 168.894 342.204 169.305C336.226 169.85 330.598 171.402 330.598 171.402H330.588Z" fill="#15B097"/>
<path opacity="0.3" d="M330.588 171.402C330.588 171.402 322.556 180.478 330.146 236.673H370.499C370.776 230.475 366.884 200.224 372.861 171.011C372.861 171.011 365.939 169.624 359.355 169.305C354.2 169.058 346.733 168.894 342.204 169.305C336.226 169.85 330.598 171.402 330.598 171.402H330.588Z" fill="white"/>
<path opacity="0.2" d="M338.712 183.447C336.884 177.958 332.488 176.2 328.01 179.459C327.106 184.783 326.469 193.366 327.199 206.975L335.076 206.903C335.076 206.903 341.433 191.619 338.712 183.447Z" fill="black"/>
<path d="M337.253 181.197C336.925 183.952 336.462 186.45 335.969 189.05C335.476 191.63 334.881 194.19 334.213 196.749C332.858 201.858 331.225 206.946 328.852 211.982C328.267 213.246 327.589 214.49 326.87 215.734C326.49 216.361 326.13 216.978 325.699 217.594C325.422 218.047 324.569 219.26 323.778 219.948C322.156 221.5 320.43 222.292 318.849 222.878C317.257 223.453 315.737 223.772 314.268 223.957C311.331 224.348 308.558 224.296 305.857 224.06C304.501 223.947 303.166 223.772 301.851 223.525C300.516 223.289 299.253 223.052 297.876 222.682L298.544 217.05C303.299 216.731 308.342 216.207 312.43 214.984C313.436 214.665 314.371 214.305 315.121 213.904C315.87 213.514 316.394 213.041 316.548 212.763C316.466 212.835 317.216 211.592 317.657 210.677C318.14 209.69 318.592 208.672 319.013 207.603C319.876 205.486 320.615 203.245 321.293 200.953C321.981 198.671 322.577 196.327 323.131 193.963C323.696 191.599 324.179 189.204 324.662 186.809C325.134 184.435 325.545 181.947 325.925 179.676L337.264 181.176L337.253 181.197Z" fill="#7F3E3B"/>
<path d="M340.673 176.911C342.799 183.808 334.183 204.376 334.183 204.376L316.004 199.802C316.004 199.802 317.668 189.369 321.581 180.889C327.476 168.092 338.116 168.627 340.673 176.911Z" fill="#15B097"/>
<path opacity="0.3" d="M340.673 176.911C342.799 183.808 334.183 204.376 334.183 204.376L316.004 199.802C316.004 199.802 317.668 189.369 321.581 180.889C327.476 168.092 338.116 168.627 340.673 176.911Z" fill="white"/>
<path d="M298.801 217.091L290.256 216.875L294.364 225.766C294.364 225.766 297.835 226.229 300.701 221.531L303.71 217.944L300.249 217.245C299.777 217.153 299.294 217.091 298.801 217.081V217.091Z" fill="#7F3E3B"/>
<path d="M284.864 218.54L289.763 225.91L294.374 225.776L290.256 216.885L284.864 218.54Z" fill="#7F3E3B"/>
<path opacity="0.2" d="M328.513 387.379L328.893 396.393H336.442L336.062 387.379H328.513Z" fill="black"/>
<path opacity="0.2" d="M391.173 359.812L385.278 364.53L393.001 369.886L398.896 365.168L391.173 359.812Z" fill="black"/>
<path d="M357.168 144.069C356.716 151.552 356.829 155.951 353.059 159.795C347.39 165.572 338.157 162.159 336.37 154.697C334.758 147.975 335.774 136.873 343.087 133.893C350.297 130.953 357.63 136.596 357.178 144.079L357.168 144.069Z" fill="#7F3E3B"/>
<path d="M363.258 137.089C363.258 137.089 367.192 138.271 365.97 142.753C364.111 149.567 359.735 157.431 354.076 157.924C347.051 158.541 343.878 151.274 342.954 143.77C338.743 140.882 335.62 138.178 336.617 135.167C338.157 130.541 343.755 126.553 352.639 127.581C361.492 128.609 365.959 134.365 363.258 137.079V137.089Z" fill="#263238"/>
<path d="M347.226 145.312C347.113 147.275 346.199 149.115 345.11 150.317C343.467 152.126 341.752 151.006 341.454 148.796C341.187 146.812 341.731 143.472 343.744 142.464C345.726 141.478 347.359 143.071 347.226 145.312Z" fill="#7F3E3B"/>
<path d="M344.453 236.672C344.453 236.672 341.906 287.573 346.867 309.138C354.724 343.294 389.263 370.657 389.263 370.657L400.376 361.765C400.376 361.765 371.957 340.601 369.4 312.17C367.11 286.637 370.499 257.302 370.499 236.672H344.463H344.453Z" fill="#15B097"/>
<path opacity="0.2" d="M344.453 236.672C344.453 236.672 341.906 287.573 346.867 309.138C354.724 343.294 389.263 370.657 389.263 370.657L400.376 361.765C400.376 361.765 371.957 340.601 369.4 312.17C367.11 286.637 370.499 257.302 370.499 236.672H344.463H344.453Z" fill="black"/>
<path opacity="0.2" d="M348.243 251.751C347.195 249.767 345.213 255.677 343.816 263.263C343.775 273.727 344.001 285.63 344.915 295.713C351.899 282.813 350.41 255.862 348.243 251.751Z" fill="black"/>
<path d="M384.23 368.457L388.431 371.726L401.238 361.334L397.397 357.85L384.22 368.457H384.23Z" fill="#2C6BDB"/>
<path opacity="0.4" d="M384.23 368.457L388.431 371.726L401.238 361.334L397.397 357.85L384.22 368.457H384.23Z" fill="#FAFAFA"/>
<path d="M330.136 236.672C330.136 236.672 318.766 284.88 317.975 307.904C317.082 333.725 326.079 394.647 326.079 394.647H338.855C338.855 394.647 340.427 333.262 341.002 309.734C341.618 284.088 356.664 236.672 356.664 236.672H330.136Z" fill="#15B097"/>
<path opacity="0.2" d="M330.136 236.672C330.136 236.672 318.766 284.88 317.975 307.904C317.082 333.725 326.079 394.647 326.079 394.647H338.855C338.855 394.647 340.427 333.262 341.002 309.734C341.618 284.088 356.664 236.672 356.664 236.672H330.136Z" fill="black"/>
<path d="M323.625 389.549C323.563 389.549 324.343 394.863 324.343 394.863H339.893L340.314 390.124L323.625 389.549Z" fill="#2C6BDB"/>
<path opacity="0.4" d="M323.625 389.549C323.563 389.549 324.343 394.863 324.343 394.863H339.893L340.314 390.124L323.625 389.549Z" fill="#FAFAFA"/>
<path d="M254.644 154.65H164.491C163.22 154.65 162.19 155.681 162.19 156.953V194.584C162.19 195.855 163.22 196.886 164.491 196.886H254.644C255.915 196.886 256.945 195.855 256.945 194.584V156.953C256.945 155.681 255.915 154.65 254.644 154.65Z" fill="#2678FC"/>
<path d="M221.861 147.92H197.263C193.381 147.92 190.228 144.764 190.228 140.879V134.588C190.228 130.702 193.381 127.547 197.263 127.547H221.861C225.743 127.547 228.896 130.702 228.896 134.588V140.879C228.896 144.764 225.743 147.92 221.861 147.92ZM197.263 132.686C196.216 132.686 195.363 133.539 195.363 134.588V140.879C195.363 141.927 196.216 142.78 197.263 142.78H221.861C222.909 142.78 223.761 141.927 223.761 140.879V134.588C223.761 133.539 222.909 132.686 221.861 132.686H197.263Z" fill="#2678FC"/>
<path opacity="0.2" d="M254.633 154.65H164.5C163.216 154.65 162.2 155.689 162.2 156.953V169.02L209.136 178.261C209.423 178.323 209.721 178.323 210.009 178.261L256.955 169.02V156.953C256.955 155.678 255.917 154.65 254.644 154.65H254.633Z" fill="black"/>
<path d="M257.037 166.472L210.009 175.734C209.721 175.795 209.423 175.795 209.136 175.734L162.107 166.472C161.039 166.267 160.269 165.331 160.269 164.242V141.485C160.269 140.23 161.286 139.213 162.539 139.213H256.606C257.859 139.213 258.875 140.23 258.875 141.485V164.242C258.875 165.331 258.105 166.267 257.037 166.472Z" fill="#2678FC"/>
<path d="M214.435 169.525H204.709C203.507 169.525 202.532 170.501 202.532 171.705V177.862C202.532 179.065 203.507 180.041 204.709 180.041H214.435C215.638 180.041 216.612 179.065 216.612 177.862V171.705C216.612 170.501 215.638 169.525 214.435 169.525Z" fill="#2678FC"/>
<path opacity="0.4" d="M214.435 169.525H204.709C203.507 169.525 202.532 170.501 202.532 171.705V177.862C202.532 179.065 203.507 180.041 204.709 180.041H214.435C215.638 180.041 216.612 179.065 216.612 177.862V171.705C216.612 170.501 215.638 169.525 214.435 169.525Z" fill="black"/>
</g>
</svg>
