<svg width="29" height="31" viewBox="0 0 29 31" fill="none" xmlns="http://www.w3.org/2000/svg">
<path d="M25.3598 6.54271C24.7227 6.98933 23.9342 7.25309 23.0836 7.25309C20.9719 7.25309 19.2538 5.6274 19.2538 3.63075C19.2538 2.82894 19.5307 2.08702 19.9989 1.48488C18.1318 0.542248 16.0824 0.0462382 13.8584 0V4.59125C15.2873 4.64064 16.5572 4.97271 17.6659 5.58326C18.8713 6.24636 19.8121 7.19214 20.4926 8.41325C21.1198 9.54924 21.4589 10.8618 21.5023 12.3498H26.9289C26.8788 10.225 26.354 8.2903 25.3598 6.54376V6.54271Z" fill="#0462F9"/>
<path d="M21.5028 13.0907C21.4527 14.5671 21.118 15.865 20.4931 16.9915C19.8125 18.2126 18.8718 19.1636 17.6664 19.8383C16.5577 20.4604 15.2867 20.7977 13.8589 20.8482C13.7343 20.8513 13.6109 20.8545 13.4864 20.8545C13.3462 20.8545 13.2095 20.8513 13.0738 20.8461C11.6604 20.7935 10.3961 20.4562 9.28743 19.8393C8.06646 19.1647 7.11903 18.2137 6.44182 16.9925C5.81799 15.865 5.48217 14.5682 5.43213 13.0917C5.42879 12.9625 5.42546 12.8332 5.42546 12.7018C5.42546 12.5842 5.42879 12.4675 5.43213 12.3498C5.4755 10.8618 5.81465 9.54924 6.44182 8.41325C7.11903 7.19214 8.06646 6.24741 9.28743 5.58327C10.3961 4.97902 11.6604 4.64694 13.0738 4.5944V0C10.772 0.055696 8.65137 0.602148 6.70648 1.632C4.64705 2.72385 3.01352 4.23605 1.80811 6.16965C0.661642 8.00972 0.0589358 10.0705 0.00667173 12.3488C-2.71335e-07 12.4665 0 12.5831 0 12.7008C0 12.8332 0.00333573 12.9625 0.00667173 13.0907C0.0656078 15.3805 0.668314 17.4381 1.80811 19.2698C3.01352 21.2044 4.64705 22.7156 6.70648 23.8074C8.65137 24.8373 10.772 25.3837 13.0738 25.4394C13.2106 25.4426 13.3474 25.4457 13.4864 25.4457C13.6109 25.4457 13.7343 25.4457 13.8589 25.4394C16.1763 25.39 18.3124 24.8436 20.2662 23.8074C22.3256 22.7156 23.9503 21.2034 25.1423 19.2698C26.2699 17.4381 26.8693 15.3805 26.9282 13.0907H21.5016H21.5028Z" fill="#EFEFEF"/>
<path d="M25.1075 30.0037L27.6739 28.2091C27.9193 28.0375 27.971 27.7105 27.7894 27.4786L24.0423 22.6931C23.8608 22.4612 23.5147 22.4123 23.2694 22.5839L20.703 24.3785C20.4576 24.5501 20.4059 24.8772 20.5875 25.109L24.3346 29.8945C24.5161 30.1264 24.8622 30.1753 25.1075 30.0037Z" fill="#EFEFEF"/>
<path d="M23.0838 6.83593C24.9564 6.83593 26.4744 5.40141 26.4744 3.63183C26.4744 1.86226 24.9564 0.427734 23.0838 0.427734C21.2113 0.427734 19.6934 1.86226 19.6934 3.63183C19.6934 5.40141 21.2113 6.83593 23.0838 6.83593Z" fill="#0462F9"/>
</svg>
